<?xml version="1.0" standalone="no"?>
<!DOCTYPE svg PUBLIC "-//W3C//DTD SVG 20010904//EN"
 "http://www.w3.org/TR/2001/REC-SVG-20010904/DTD/svg10.dtd">
<svg version="1.0" xmlns="http://www.w3.org/2000/svg"
 width="500.000000pt" height="500.000000pt" viewBox="0 0 500.000000 500.000000"
 preserveAspectRatio="xMidYMid meet">

<g transform="translate(0.000000,500.000000) scale(0.100000,-0.100000)"
fill="#000000" stroke="none">
<path d="M2375 3416 c-186 -43 -319 -103 -440 -200 -154 -122 -272 -306 -325
-501 -27 -103 -37 -296 -21 -400 58 -360 332 -664 690 -768 65 -19 100 -22
251 -22 188 0 234 7 353 56 224 90 390 242 500 457 61 118 86 206 96 336 16
199 -8 346 -85 505 -129 270 -338 440 -641 521 -101 28 -293 35 -378 16z
m-175 -358 c21 -17 125 -140 137 -162 9 -17 13 -17 62 0 43 14 74 16 166 11
l113 -6 32 48 c38 60 120 138 153 146 46 12 80 2 98 -30 26 -43 48 -135 61
-250 8 -76 16 -106 32 -125 99 -117 144 -279 125 -450 -13 -118 -70 -243 -138
-304 -11 -11 -21 -29 -21 -42 0 -30 -45 -64 -144 -109 -124 -58 -212 -77 -356
-79 -131 -1 -234 16 -334 56 -70 27 -126 69 -126 94 0 11 -12 31 -26 45 -43
40 -101 149 -125 234 -18 64 -23 105 -23 210 0 145 17 216 76 307 21 34 38 84
58 175 32 148 62 231 91 255 19 16 23 16 47 3 15 -8 34 -20 42 -27z"/>
<path d="M2170 2640 c-11 -11 -20 -28 -20 -38 0 -24 28 -62 46 -62 10 0 3 -10
-17 -27 -75 -63 -77 -177 -4 -250 40 -40 91 -44 144 -12 l34 20 83 -26 c103
-34 191 -33 242 4 32 23 72 87 72 116 0 27 -18 16 -30 -20 -22 -66 -109 -113
-188 -100 -20 4 -65 15 -98 26 -46 15 -63 26 -68 42 -11 41 -6 66 13 72 27 8
81 72 81 95 0 27 -39 50 -97 57 -117 13 -161 -72 -68 -133 22 -14 25 -24 25
-71 0 -53 -1 -54 -36 -69 -49 -21 -88 -5 -115 47 -26 51 -25 108 4 150 25 38
116 103 161 116 33 9 47 33 19 33 -10 -1 -29 -7 -43 -15 -34 -20 -40 -19 -40
8 0 51 -63 74 -100 37z m40 -26 c0 -8 -7 -14 -15 -14 -15 0 -21 21 -9 33 10 9
24 -2 24 -19z"/>
<path d="M2687 2632 c-10 -10 -17 -28 -17 -40 0 -28 34 -62 60 -62 27 0 60 35
60 63 0 50 -70 76 -103 39z m39 -13 c10 -17 -13 -36 -27 -22 -12 12 -4 33 11
33 5 0 12 -5 16 -11z"/>
</g>
</svg>
